<?xml version="1.0" encoding="utf-8"?>
<!-- Generator: Adobe Illustrator 22.1.0, SVG Export Plug-In . SVG Version: 6.00 Build 0)  -->
<svg xmlns="http://www.w3.org/2000/svg" xmlns:xlink="http://www.w3.org/1999/xlink" version="1.1" id="Layer_1" x="0px" y="0px" viewBox="0 0 512 512" style="enable-background:new 0 0 512 512;" xml:space="preserve" width="512" height="512">
<style type="text/css">
	.st0{fill:#FFA730;}
	.st1{fill:#E58D23;}
	.st2{fill:#BF6C0D;}
	.st3{fill:#A56021;}
	.st4{fill:#FFD551;}
	.st5{fill:#FFF4C1;}
	.st6{fill:#FFC34C;}
	.st7{fill:#FFEA63;}
	.st8{fill:#FCE575;}
	.st9{fill:#FFB74B;}
	.st10{fill:#8C4C17;}
	.st11{fill:#F9BB32;}
	.st12{fill:#FF4B34;}
	.st13{fill:#FF9079;}
	.st14{fill:#FFDF74;}
	.st15{fill:#FF624B;}
	.st16{fill:#CCC033;}
	.st17{fill:#EACF32;}
	.st18{fill:#FFEACF;}
	.st19{fill:#99AF17;}
	.st20{fill:#FFD59A;}
	.st21{fill:#FCDA4F;}
	.st22{fill:#FCF9DE;}
	.st23{fill:#DB9C2E;}
</style>
<g>
	<g>
		<g>
			<path class="st23" d="M143.701,437.194h224.597c-50.753-18.831-41.337-112.988-41.337-112.988H185.038h141.924H185.038     C185.038,324.206,194.454,418.362,143.701,437.194h224.597H143.701z"/>
		</g>
	</g>
	<g>
		<g>
			<path class="st4" d="M394.201,459.24H117.799c-4.418,0-8-3.582-8-8v-6.046c0-4.418,3.582-8,8-8h276.401c4.418,0,8,3.582,8,8     v6.046C402.201,455.658,398.619,459.24,394.201,459.24z"/>
		</g>
	</g>
	<g>
		<g>
			<path class="st2" d="M225.038,379.206h104.518c-5.292-27.984-2.594-55-2.594-55H185.038c0,0,9.416,94.156-41.337,112.988h78.146     C227.93,408.178,225.038,379.206,225.038,379.206z"/>
		</g>
	</g>
	<g>
		<g>
			<path class="st6" d="M169.799,451.24v-6.046c0-4.418,3.582-8,8-8h-60c-4.418,0-8,3.582-8,8v6.046c0,4.418,3.582,8,8,8h60     C173.381,459.24,169.799,455.658,169.799,451.24z"/>
		</g>
	</g>
	<g>
		<g>
			<path class="st11" d="M451.129,52.76H60.871c-8.284,0-15,6.716-15,15v241.289v13.779v19.093c0,13.807,11.193,25,25,25h370.259     c13.807,0,25-11.193,25-25v-19.093v-13.779V67.76C466.129,59.476,459.414,52.76,451.129,52.76z"/>
		</g>
	</g>
	<g>
		<g>
			<path class="st23" d="M105.871,341.921v-19.093v-13.779V67.76c0-8.284,6.716-15,15-15h-60c-8.284,0-15,6.716-15,15v241.289     v13.779v19.093c0,13.807,11.193,25,25,25h60C117.063,366.921,105.871,355.728,105.871,341.921z"/>
		</g>
	</g>
	<g>
		<g>
			<path class="st5" d="M60.87,307.828V77.76c0-5.523,4.477-10,10-10h370.26c5.523,0,10,4.477,10,10v230.068H60.87z"/>
		</g>
	</g>
	<g>
		<g>
			<path class="st8" d="M70.87,67.76c-5.523,0-10,4.477-10,10v230.068h45V67.76H70.87z"/>
		</g>
	</g>
	<g>
		<g>
			<circle class="st4" cx="256" cy="337.985" r="18.602"/>
		</g>
	</g>
	<g>
		<g>
			<path class="st8" d="M70.87,67.76c-5.523,0-10,4.477-10,10v230.068h45V67.76H70.87z"/>
		</g>
	</g>
	<g>
		<g>
			<path class="st10" d="M249.101,174.307c-10.818,0-19.62,8.801-19.62,19.62c0,10.818,8.801,19.62,19.62,19.62     s19.62-8.801,19.62-19.62C268.721,183.109,259.92,174.307,249.101,174.307z M249.101,207.602c-7.54,0-13.674-6.134-13.674-13.674     s6.134-13.674,13.674-13.674s13.674,6.134,13.674,13.674S256.641,207.602,249.101,207.602z"/>
		</g>
	</g>
	<g>
		<g>
			<path class="st11" d="M294.275,184.798h-9.695c0.532,1.786,0,0,0,0c-0.024-0.08-0.05-0.159-0.074-0.239h0.002     c-0.027-0.089-0.057-0.177-0.085-0.265c-0.042-0.134-0.084-0.267-0.128-0.4c-0.045-0.136-0.092-0.271-0.138-0.406     c-0.042-0.122-0.084-0.244-0.128-0.366c-0.049-0.138-0.101-0.275-0.153-0.413c-0.045-0.12-0.089-0.24-0.136-0.359     c-0.052-0.133-0.105-0.264-0.158-0.397c-0.05-0.124-0.1-0.248-0.151-0.371c-0.052-0.125-0.107-0.249-0.161-0.374     c-0.056-0.129-0.111-0.257-0.169-0.385c-0.054-0.119-0.109-0.238-0.165-0.357c-0.061-0.13-0.121-0.26-0.183-0.39     c-0.057-0.119-0.116-0.237-0.175-0.355c-0.062-0.126-0.125-0.252-0.189-0.377c-0.065-0.127-0.133-0.254-0.2-0.381     c-0.042-0.08-0.083-0.16-0.126-0.24l-0.001,0.001c-0.04-0.073-0.078-0.147-0.118-0.22c-0.362-0.657-0.362-0.657,0,0l6.801-6.908     c1.179-1.198,1.164-3.125-0.034-4.304l-8.674-8.54c-1.198-1.179-3.124-1.164-4.304,0.034l-6.802,6.909     c0.663,0.352,0.663,0.352,0,0c-0.077-0.041-0.5-0.259-0.634-0.327c-0.107-0.054-0.601-0.295-0.742-0.361     c-0.11-0.052-0.605-0.277-0.743-0.338c-0.119-0.052-2.564-0.997-2.711-1.046c-0.114-0.038-0.227-0.076-0.341-0.113     c-0.143-0.046-0.287-0.09-0.431-0.135c-0.083-0.026-0.341-0.105-0.249-0.078v-9.695c0-1.583-1.208-2.882-2.753-3.029     c-0.203-0.041-0.413-0.063-0.629-0.061l-5.919,0.046h-5.916c-0.216,0-0.426,0.023-0.628,0.066     c-1.543,0.158-2.741,1.467-2.729,3.05l0.076,9.695c-0.084,0.026-0.167,0.054-0.25,0.08c-0.142,0.045-0.284,0.089-0.425,0.136     c-0.131,0.043-0.261,0.089-0.392,0.134c-0.128,0.044-0.257,0.088-0.385,0.134c-0.134,0.048-0.268,0.098-0.402,0.149     c-0.125,0.047-0.25,0.093-0.374,0.142c-0.132,0.052-0.264,0.105-0.395,0.158c-0.125,0.051-0.251,0.101-0.376,0.154     c-0.128,0.054-0.255,0.109-0.382,0.164c-0.127,0.055-0.255,0.111-0.381,0.168c-0.124,0.056-0.248,0.114-0.372,0.171     c-0.127,0.059-0.254,0.119-0.38,0.179c-0.124,0.06-0.248,0.121-0.372,0.183c-0.122,0.061-0.243,0.122-0.364,0.184     c-0.13,0.067-0.26,0.136-0.389,0.205c-0.065,0.035-0.131,0.068-0.195,0.103l-6.855-6.855c-1.119-1.119-2.892-1.184-4.088-0.195     c-0.173,0.115-0.337,0.248-0.488,0.402l-4.151,4.216l-4.185,4.185c-0.152,0.152-0.285,0.317-0.398,0.491     c-0.979,1.203-0.901,2.976,0.227,4.086l6.909,6.802c0.008-0.014,0.014-0.027,0.021-0.04c-0.013,0.025-0.021,0.04-0.021,0.04     c-0.044,0.082-0.085,0.166-0.128,0.248c-0.067,0.13-0.135,0.259-0.2,0.39c-0.056,0.111-0.11,0.223-0.165,0.335     c-0.067,0.138-0.134,0.275-0.2,0.414c-0.053,0.112-0.104,0.225-0.155,0.338c-0.063,0.138-0.126,0.275-0.186,0.414     c-0.052,0.119-0.103,0.24-0.154,0.359c-0.056,0.132-0.113,0.265-0.167,0.398c-0.053,0.129-0.104,0.26-0.155,0.39     c-0.049,0.125-0.099,0.25-0.146,0.376c-0.053,0.139-0.103,0.28-0.154,0.42c-0.043,0.119-0.087,0.237-0.128,0.357     c-0.05,0.144-0.098,0.289-0.146,0.434c-0.039,0.119-0.08,0.237-0.118,0.356c-0.044,0.138-0.086,0.277-0.128,0.415     c-0.032,0.105-0.066,0.209-0.097,0.314c0.01-0.035,0.019-0.07,0.029-0.105h-9.693c-1.681,0-3.043,1.363-3.043,3.043v12.173     c0,1.681,1.362,3.043,3.043,3.043h9.695c-0.005-0.016-0.009-0.029-0.013-0.044c0.008,0.027,0.013,0.044,0.013,0.044     c0.024,0.08,0.05,0.159,0.074,0.239h-0.002c0.027,0.089,0.057,0.176,0.085,0.264c0.042,0.134,0.084,0.268,0.128,0.401     c0.045,0.135,0.091,0.27,0.138,0.405c0.042,0.122,0.084,0.245,0.128,0.366c0.049,0.138,0.101,0.275,0.152,0.412     c0.045,0.12,0.09,0.241,0.136,0.36c0.051,0.132,0.105,0.264,0.158,0.396c0.05,0.124,0.1,0.248,0.151,0.372     c0.052,0.124,0.106,0.248,0.16,0.372c0.056,0.129,0.112,0.258,0.17,0.387c0.054,0.119,0.109,0.237,0.164,0.356     c0.061,0.13,0.121,0.261,0.183,0.39c0.057,0.119,0.116,0.237,0.175,0.355c0.062,0.126,0.125,0.252,0.189,0.377     c0.065,0.127,0.132,0.253,0.2,0.38c0.042,0.08,0.083,0.161,0.126,0.24l0.001-0.001c0.04,0.073,0.078,0.147,0.118,0.22     c0.362,0.657,0.362,0.657,0,0l-6.801,6.908c-1.179,1.198-1.164,3.125,0.034,4.304l8.674,8.54     c1.198,1.179,3.124,1.164,4.304-0.034c0,0,6.139-7.261,6.802-6.909c0.077,0.041,0.155,0.079,0.232,0.12     c0.133,0.07,0.267,0.139,0.402,0.207c0.107,0.054,0.215,0.107,0.323,0.159c0.139,0.068,0.278,0.136,0.418,0.202     c0.111,0.052,0.222,0.103,0.333,0.153c0.137,0.062,0.273,0.125,0.411,0.185c0.119,0.052,0.239,0.103,0.358,0.154     c0.13,0.055,0.259,0.11,0.39,0.164c0.13,0.053,0.261,0.105,0.391,0.156c0.121,0.048,0.242,0.096,0.364,0.142     c0.141,0.054,0.283,0.106,0.425,0.157c0.113,0.041,0.227,0.083,0.341,0.123c0.147,0.052,0.295,0.101,0.443,0.151     c0.113,0.038,0.226,0.076,0.339,0.112c0.144,0.046,0.288,0.091,0.433,0.135c0.083,0.025,0.165,0.053,0.248,0.078     c0.092,0.027,0.171,0.051,0.239,0.071l0,0c-0.068-0.02-0.148-0.044-0.239-0.071v9.695c0,1.583,1.208,2.882,2.753,3.029     c0.203,0.041,0.413,0.063,0.629,0.061l5.919-0.046h5.916c0.216,0,0.426-0.023,0.628-0.066c1.543-0.158,2.742-1.467,2.729-3.05     l-0.076-9.695c0.084-0.026,0.167-0.054,0.25-0.08c0.142-0.045,0.284-0.089,0.425-0.136c0.131-0.043,0.261-0.088,0.391-0.133     c0.129-0.044,0.258-0.089,0.385-0.135c0.134-0.048,0.268-0.098,0.401-0.148c0.125-0.047,0.251-0.094,0.375-0.142     c0.131-0.051,0.262-0.104,0.393-0.157c0.127-0.051,0.253-0.102,0.379-0.155c0.126-0.053,0.252-0.108,0.377-0.162     c0.129-0.056,0.258-0.112,0.386-0.17c0.123-0.055,0.245-0.112,0.367-0.169c0.129-0.06,0.257-0.12,0.385-0.182     c0.123-0.059,0.245-0.12,0.367-0.181c0.123-0.062,0.246-0.123,0.369-0.186c0.129-0.066,0.258-0.134,0.386-0.203     c0.066-0.035,0.132-0.068,0.197-0.104l6.855,6.855c1.119,1.119,2.892,1.184,4.088,0.195c0.173-0.115,0.337-0.248,0.488-0.402     l4.15-4.215l4.186-4.185c0.152-0.152,0.285-0.317,0.398-0.491c0.979-1.203,0.901-2.976-0.227-4.086l-6.909-6.802     c-0.042,0.078-0.079,0.15-0.117,0.22l-0.001-0.001c0.04-0.073,0.077-0.148,0.116-0.221l0.002,0.002     c0.044-0.082,0.085-0.166,0.128-0.248c0.067-0.13,0.135-0.259,0.2-0.39c0.056-0.111,0.11-0.223,0.165-0.335     c0.067-0.138,0.134-0.275,0.2-0.414c0.053-0.112,0.104-0.225,0.155-0.338c0.063-0.138,0.126-0.275,0.186-0.414     c0.052-0.119,0.102-0.238,0.153-0.358c0.057-0.133,0.113-0.266,0.168-0.4c0.053-0.129,0.103-0.258,0.154-0.387     c0.049-0.126,0.099-0.251,0.147-0.378c0.053-0.139,0.103-0.279,0.154-0.419c0.043-0.119,0.087-0.238,0.129-0.358     c0.05-0.144,0.098-0.289,0.146-0.433c0.04-0.119,0.08-0.237,0.118-0.357c0.044-0.138,0.086-0.277,0.128-0.415     c0.032-0.105,0.066-0.209,0.097-0.314c-0.01,0.035-0.019,0.07-0.029,0.105h9.693c1.681,0,3.043-1.363,3.043-3.043v-12.173     C297.318,186.16,295.955,184.798,294.275,184.798z M272.79,199.397c-0.074,0.255-0.154,0.508-0.238,0.761     c-0.025,0.075-0.05,0.151-0.076,0.226c-0.068,0.195-0.14,0.388-0.214,0.581c-0.051,0.133-0.103,0.267-0.157,0.399     c-0.054,0.132-0.111,0.264-0.168,0.395c-0.083,0.189-0.167,0.378-0.255,0.564c-0.034,0.072-0.069,0.144-0.104,0.216     c-0.117,0.238-0.237,0.475-0.363,0.708c-0.01,0.019-0.021,0.038-0.031,0.057c-2.074,3.797-5.368,6.833-9.35,8.587     c-0.101,0.044-0.201,0.092-0.302,0.134c-0.101,0.043-0.205,0.08-0.307,0.121c-4.044,1.607-8.519,1.825-12.681,0.639     c-0.02-0.006-0.04-0.011-0.061-0.017c-0.255-0.074-0.508-0.154-0.76-0.238c-0.075-0.025-0.151-0.051-0.226-0.077     c-0.195-0.068-0.388-0.14-0.581-0.214c-0.134-0.052-0.267-0.103-0.4-0.158c-0.132-0.054-0.263-0.11-0.394-0.167     c-0.189-0.083-0.378-0.167-0.564-0.255c-0.072-0.034-0.144-0.069-0.216-0.104c-0.238-0.117-0.475-0.237-0.708-0.363     c-0.019-0.01-0.038-0.021-0.057-0.031c-3.797-2.074-6.834-5.369-8.588-9.351c-0.044-0.101-0.091-0.2-0.133-0.301     c-0.043-0.101-0.081-0.205-0.122-0.308c-1.607-4.044-1.824-8.519-0.638-12.68c0.006-0.02,0.011-0.04,0.017-0.061     c0.074-0.255,0.154-0.508,0.238-0.76c0.025-0.075,0.05-0.151,0.077-0.226c0.068-0.195,0.14-0.388,0.214-0.581     c0.052-0.134,0.103-0.267,0.158-0.399c0.054-0.132,0.11-0.263,0.167-0.394c0.083-0.19,0.167-0.378,0.256-0.565     c0.034-0.072,0.069-0.143,0.104-0.215c0.117-0.238,0.237-0.475,0.363-0.708c0.01-0.019,0.021-0.038,0.031-0.057     c2.074-3.797,5.369-6.834,9.351-8.588c0.101-0.044,0.2-0.091,0.301-0.133c0.102-0.043,0.206-0.081,0.308-0.122     c4.043-1.607,8.518-1.824,12.679-0.638c0.021,0.006,0.041,0.012,0.062,0.018c0.254,0.073,0.507,0.154,0.759,0.238     c0.076,0.026,0.152,0.051,0.227,0.077c0.195,0.067,0.388,0.14,0.581,0.214c0.133,0.052,0.267,0.103,0.399,0.158     c0.132,0.054,0.264,0.111,0.395,0.168c0.189,0.083,0.378,0.167,0.564,0.256c0.072,0.034,0.143,0.069,0.214,0.104     c0.239,0.117,0.476,0.237,0.709,0.364c0.019,0.01,0.037,0.02,0.055,0.03c3.797,2.074,6.834,5.369,8.588,9.351     c0.044,0.101,0.092,0.201,0.134,0.302c0.043,0.101,0.08,0.205,0.121,0.307c1.607,4.044,1.825,8.519,0.639,12.68     C272.801,199.356,272.796,199.377,272.79,199.397z"/>
		</g>
	</g>
	<g>
		<g>
			<path class="st1" d="M253.952,174.307c-10.818,0-19.62,8.801-19.62,19.62c0,10.818,8.801,19.62,19.62,19.62     c10.818,0,19.62-8.801,19.62-19.62C273.572,183.109,264.77,174.307,253.952,174.307z M253.952,207.602     c-7.54,0-13.674-6.134-13.674-13.674s6.134-13.674,13.674-13.674s13.674,6.134,13.674,13.674S261.492,207.602,253.952,207.602z"/>
		</g>
	</g>
	<g>
		<g>
			<g>
				<path class="st23" d="M260.186,150.554c-0.159-0.025-0.321-0.041-0.487-0.039l-5.919,0.046h5.554L260.186,150.554z"/>
			</g>
		</g>
		<g>
			<g>
				<path class="st23" d="M253.128,237.279c-1.544-0.146-2.753-1.446-2.753-3.029v-9.695c-0.083-0.025-0.165-0.052-0.249-0.077      c-0.144-0.044-0.289-0.089-0.433-0.135c-0.113-0.037-0.226-0.075-0.339-0.112c-0.148-0.049-0.296-0.099-0.443-0.151      c-0.114-0.04-0.227-0.082-0.341-0.123c-0.142-0.052-0.284-0.103-0.425-0.157c-0.122-0.046-0.243-0.094-0.364-0.142      c-0.131-0.052-0.261-0.103-0.391-0.156c-0.13-0.053-0.26-0.109-0.39-0.164c-0.12-0.051-0.239-0.102-0.358-0.154      c-0.138-0.061-0.274-0.123-0.411-0.185c-0.111-0.051-0.222-0.101-0.333-0.153c-0.14-0.066-0.279-0.134-0.418-0.202      c-0.108-0.053-0.216-0.105-0.323-0.159c-0.135-0.068-0.268-0.137-0.402-0.207c-0.077-0.04-0.155-0.079-0.232-0.12      c-0.219-0.116-1.034,0.598-2.027,1.604c0.032,0.012,0.064,0.025,0.096,0.038c0.141,0.054,0.283,0.106,0.425,0.157      c0.113,0.041,0.227,0.083,0.341,0.123c0.147,0.052,0.295,0.101,0.443,0.151c0.113,0.038,0.226,0.076,0.339,0.112      c0.144,0.046,0.288,0.091,0.433,0.135c0.083,0.025,0.165,0.053,0.248,0.077v9.695c0,1.583,1.208,2.882,2.753,3.029      c0.203,0.041,0.413,0.062,0.629,0.061l5.067-0.039C253.223,237.293,253.175,237.288,253.128,237.279z"/>
			</g>
		</g>
		<g>
			<g>
				<path class="st23" d="M231.511,209.348C231.874,210.005,231.874,210.005,231.511,209.348L231.511,209.348z"/>
			</g>
		</g>
		<g>
			<g>
				<path class="st23" d="M224.744,220.56c-1.198-1.179-1.213-3.106-0.034-4.304l6.801-6.908c-0.04-0.073-0.078-0.147-0.118-0.221      l-0.001,0.002c-0.043-0.079-0.084-0.16-0.126-0.24c-0.067-0.126-0.134-0.253-0.199-0.38c-0.064-0.125-0.126-0.251-0.189-0.377      c-0.059-0.118-0.118-0.236-0.175-0.355c-0.062-0.129-0.123-0.26-0.183-0.39c-0.055-0.119-0.111-0.237-0.164-0.356      c-0.058-0.128-0.114-0.258-0.17-0.387c-0.054-0.124-0.108-0.247-0.16-0.372c-0.052-0.123-0.101-0.248-0.151-0.372      c-0.053-0.132-0.107-0.263-0.158-0.396c-0.046-0.12-0.091-0.24-0.136-0.36c-0.051-0.137-0.103-0.274-0.152-0.412      c-0.044-0.122-0.085-0.244-0.128-0.366c-0.047-0.135-0.093-0.27-0.138-0.405c-0.044-0.133-0.086-0.267-0.128-0.401      c-0.028-0.088-0.058-0.176-0.085-0.264h0.002c-0.024-0.08-0.051-0.159-0.074-0.239h-5.554c0.024,0.08,0.05,0.159,0.074,0.239      h-0.002c0.027,0.089,0.057,0.176,0.085,0.264c0.042,0.134,0.084,0.268,0.128,0.401c0.045,0.135,0.091,0.27,0.138,0.405      c0.042,0.122,0.084,0.245,0.128,0.366c0.049,0.138,0.101,0.275,0.152,0.412c0.045,0.12,0.09,0.24,0.136,0.36      c0.051,0.132,0.105,0.264,0.158,0.396c0.05,0.124,0.1,0.248,0.151,0.372c0.052,0.124,0.106,0.248,0.16,0.372      c0.056,0.129,0.112,0.258,0.17,0.387c0.054,0.119,0.109,0.238,0.164,0.356c0.061,0.13,0.121,0.261,0.183,0.39      c0.057,0.119,0.116,0.237,0.175,0.355c0.063,0.126,0.125,0.252,0.189,0.377c0.065,0.127,0.132,0.253,0.199,0.38      c0.042,0.08,0.083,0.161,0.126,0.24l0.001-0.002c0.04,0.073,0.077,0.147,0.118,0.221c0.362,0.657,0.362,0.657,0,0l-6.801,6.908      c-1.179,1.198-1.164,3.125,0.034,4.304l8.674,8.54c1.198,1.179,3.124,1.164,4.304-0.034c0,0,0.21-0.249,0.556-0.65      L224.744,220.56z"/>
			</g>
		</g>
		<g>
			<g>
				<path class="st23" d="M244.304,165.814c0.065-0.035,0.131-0.068,0.195-0.103c0.13-0.069,0.259-0.137,0.389-0.204      c0.121-0.062,0.242-0.123,0.364-0.184c0.124-0.062,0.248-0.123,0.372-0.183c0.126-0.061,0.253-0.12,0.38-0.179      c0.124-0.058,0.247-0.115,0.372-0.171c0.127-0.057,0.254-0.112,0.381-0.168c0.127-0.055,0.254-0.111,0.382-0.164      c0.125-0.052,0.25-0.103,0.376-0.154c0.132-0.053,0.263-0.106,0.395-0.158c0.124-0.048,0.249-0.095,0.374-0.142      c0.134-0.05,0.268-0.1,0.402-0.149c0.128-0.046,0.256-0.09,0.385-0.134c0.13-0.045,0.261-0.09,0.392-0.134      c0.141-0.047,0.283-0.091,0.425-0.136c0.083-0.026,0.166-0.055,0.25-0.08l-0.076-9.695c-0.012-1.583,1.186-2.892,2.729-3.05      c0.203-0.043,0.413-0.066,0.628-0.066h-5.554c-0.216,0-0.426,0.023-0.628,0.066c-1.543,0.158-2.741,1.467-2.729,3.05      l0.076,9.695c-0.084,0.025-0.166,0.054-0.25,0.08c-0.142,0.045-0.284,0.089-0.425,0.136c-0.131,0.043-0.261,0.089-0.392,0.134      c-0.128,0.044-0.257,0.088-0.385,0.134c-0.134,0.048-0.268,0.098-0.402,0.149c-0.057,0.021-0.114,0.044-0.171,0.065      L244.304,165.814z"/>
			</g>
		</g>
		<g>
			<g>
				<path class="st23" d="M225.721,178.946c0.008-0.014,0.014-0.027,0.021-0.04C225.729,178.931,225.721,178.946,225.721,178.946      c-0.044,0.082-0.085,0.166-0.128,0.248c-0.067,0.13-0.135,0.259-0.201,0.39c-0.056,0.111-0.11,0.223-0.165,0.335      c-0.067,0.138-0.134,0.275-0.2,0.414c-0.053,0.112-0.104,0.225-0.155,0.338c-0.063,0.138-0.126,0.275-0.186,0.414      c-0.052,0.119-0.103,0.24-0.154,0.359c-0.056,0.132-0.113,0.265-0.167,0.398c-0.053,0.13-0.104,0.26-0.155,0.39      c-0.049,0.125-0.099,0.25-0.146,0.376c-0.053,0.139-0.103,0.28-0.154,0.42c-0.043,0.119-0.087,0.237-0.128,0.357      c-0.05,0.144-0.098,0.289-0.146,0.434c-0.039,0.119-0.08,0.237-0.118,0.356c-0.044,0.138-0.086,0.277-0.128,0.415      c-0.021,0.07-0.043,0.14-0.065,0.209h5.55c-0.01,0.035-0.019,0.07-0.029,0.105c0.031-0.105,0.065-0.209,0.097-0.314      c0.042-0.138,0.084-0.277,0.128-0.415c0.038-0.119,0.078-0.237,0.118-0.356c0.048-0.145,0.096-0.29,0.146-0.434      c0.042-0.119,0.085-0.238,0.128-0.357c0.051-0.14,0.101-0.28,0.154-0.42c0.048-0.126,0.097-0.251,0.146-0.376      c0.051-0.13,0.102-0.26,0.155-0.39c0.054-0.133,0.111-0.265,0.167-0.398c0.051-0.12,0.101-0.24,0.154-0.359      c0.061-0.139,0.124-0.276,0.186-0.414c0.051-0.113,0.103-0.226,0.155-0.338c0.065-0.139,0.132-0.276,0.2-0.414      c0.055-0.112,0.109-0.224,0.165-0.335c0.066-0.131,0.133-0.26,0.201-0.39c0.043-0.082,0.084-0.166,0.128-0.248l-6.909-6.802      c-1.128-1.11-1.206-2.883-0.227-4.086c0.113-0.174,0.246-0.339,0.398-0.491l4.185-4.185l3.768-3.827l-0.595-0.595      c-1.119-1.119-2.892-1.184-4.088-0.195c-0.173,0.115-0.337,0.248-0.488,0.402l-4.151,4.216l-4.185,4.185      c-0.152,0.152-0.285,0.317-0.398,0.491c-0.979,1.203-0.901,2.976,0.227,4.086L225.721,178.946z"/>
			</g>
		</g>
		<g>
			<g>
				<path class="st23" d="M231.274,178.946c0,0,0.008-0.015,0.021-0.04C231.288,178.919,231.282,178.931,231.274,178.946z"/>
			</g>
		</g>
		<g>
			<g>
				<path class="st23" d="M216.139,200.014v-12.173c0-1.681,1.362-3.043,3.043-3.043h-5.554c-1.681,0-3.043,1.363-3.043,3.043      v12.173c0,1.681,1.362,3.043,3.043,3.043h5.554C217.501,203.057,216.139,201.695,216.139,200.014z"/>
			</g>
		</g>
		<g>
			<g>
				<path class="st23" d="M228.877,203.057c0,0-0.005-0.016-0.013-0.043C228.868,203.028,228.872,203.042,228.877,203.057z"/>
			</g>
		</g>
	</g>
	<g>
		<g>
			<path class="st1" d="M157.552,212.987H89.333c-4.418,0-8-3.582-8-8v-31.131c0-4.418,3.582-8,8-8h68.218c4.418,0,8,3.582,8,8     v31.131C165.552,209.405,161.97,212.987,157.552,212.987z"/>
		</g>
	</g>
	<g>
		<g>
			<path class="st10" d="M385.519,261.785c-3.313,0-6-2.687-6-6V119.11c0-3.313,2.687-6,6-6s6,2.687,6,6v136.675     C391.519,259.099,388.832,261.785,385.519,261.785z"/>
		</g>
	</g>
	<g>
		<g>
			<path class="st1" d="M422.667,214.377H348.37c-4.418,0-8-3.582-8-8v-34.533c0-4.418,3.582-8,8-8h74.296c4.418,0,8,3.582,8,8     v34.533C430.667,210.795,427.085,214.377,422.667,214.377z"/>
		</g>
	</g>
	<g>
		<g>
			<path class="st1" d="M422.667,144.377H348.37c-4.418,0-8-3.582-8-8v-34.533c0-4.418,3.582-8,8-8h74.296c4.418,0,8,3.582,8,8     v34.533C430.667,140.795,427.085,144.377,422.667,144.377z"/>
		</g>
	</g>
	<g>
		<g>
			<path class="st1" d="M422.667,284.377H348.37c-4.418,0-8-3.582-8-8v-34.533c0-4.418,3.582-8,8-8h74.296c4.418,0,8,3.582,8,8     v34.533C430.667,280.795,427.085,284.377,422.667,284.377z"/>
		</g>
	</g>
	<g>
		<g>
			<path class="st10" d="M200.138,199.719h-23.471c-3.313,0-6-2.687-6-6s2.687-6,6-6h23.471c3.313,0,6,2.687,6,6     S203.451,199.719,200.138,199.719z"/>
		</g>
	</g>
	<g>
		<g>
			<path class="st10" d="M331.333,199.719h-23.471c-3.313,0-6-2.687-6-6s2.687-6,6-6h23.471c3.313,0,6,2.687,6,6     S334.646,199.719,331.333,199.719z"/>
		</g>
	</g>
	<g>
		<g>
			<path class="st2" d="M104.871,165.855H89.333c-4.418,0-8,3.582-8,8v31.131c0,4.418,3.582,8,8,8h15.537V165.855z"/>
		</g>
	</g>
	<g>
		<g>
			<circle class="st23" cx="130.871" cy="337.985" r="15"/>
		</g>
	</g>
	<g>
		<g>
			<path class="st22" d="M418.667,132.342c-3.313,0-6-2.687-6-6v-19.224c0-3.313,2.687-6,6-6s6,2.687,6,6v19.224     C424.667,129.655,421.98,132.342,418.667,132.342z"/>
		</g>
	</g>
	<g>
		<g>
			<path class="st22" d="M418.667,284.654c-3.313,0-6-2.687-6-6v-128.14c0-3.313,2.687-6,6-6s6,2.687,6,6v128.14     C424.667,281.968,421.98,284.654,418.667,284.654z"/>
		</g>
	</g>
	<g>
		<g>
			<path class="st11" d="M332.166,430.392c-1.501,0-3.004-0.56-4.169-1.686c-14.134-13.661-20.866-33.348-21.146-34.179     c-1.057-3.141,0.633-6.543,3.773-7.6c3.135-1.057,6.539,0.631,7.598,3.768c0.077,0.226,6.143,17.811,18.114,29.382     c2.383,2.303,2.447,6.102,0.145,8.484C335.304,429.779,333.736,430.392,332.166,430.392z"/>
		</g>
	</g>
</g>
</svg>
