<svg height="451pt" viewBox="0 0 451 451.87522" width="451pt" xmlns="http://www.w3.org/2000/svg"><path d="m239.820312 23.480469c-1.632812-.085938-3.082031 1.144531-3.191406 2.792969-.109375 1.65625 1.144532 3.082031 2.796875 3.195312 102.8125 6.75 183.351563 92.835938 183.351563 195.972656 0 108.304688-88.113282 196.417969-196.417969 196.417969-108.308594 0-196.421875-88.113281-196.421875-196.417969 0-49.5 18.472656-96.785156 52.015625-133.140625 33.351563-36.144531 78.597656-58.355469 127.40625-62.539062 1.652344-.140625 2.875-1.59375 2.734375-3.246094s-1.601562-2.875-3.246094-2.730469c-50.304687 4.308594-96.9375 27.199219-131.300781 64.449219-34.570313 37.46875-53.605469 86.195313-53.605469 137.207031 0 111.617188 90.804688 202.417969 202.417969 202.417969s202.421875-90.800781 202.421875-202.417969c0-106.289062-83.003906-195-188.960938-201.960937zm0 0" fill="#3a312a"/><path d="m142.539062 231.328125h-26.78125v-17.402344c-7.402343 5.132813-15.066406 8.164063-22.503906 8.164063-7.132812 0-14.664062-3.058594-22.035156-8.253906h-.457031v17.492187h-26.792969c-22.386719 0-40.53125 18.144531-40.53125 40.53125v36.726563h179.628906v-36.730469c0-22.382813-18.144531-40.527344-40.527344-40.527344zm0 0" fill="#fce8cb"/><path d="m142.539062 228.328125h-23.78125v-14.402344c0-1.117187-.617187-2.140625-1.605468-2.660156-.992188-.515625-2.183594-.445313-3.101563.195313-7.300781 5.0625-14.300781 7.628906-20.796875 7.628906-6.214844 0-13.050781-2.59375-20.308594-7.707032-.503906-.359374-1.109374-.546874-1.730468-.546874h-.453125c-1.65625 0-3 1.34375-3 3v14.496093h-23.792969c-24.003906 0-43.53125 19.523438-43.53125 43.527344v36.730469c0 1.65625 1.34375 3 3 3h72.871094c1.65625 0 3-1.34375 3-3s-1.34375-3-3-3h-69.871094v-33.734375c0-20.691407 16.835938-37.527344 37.53125-37.527344h26.789062c1.660157 0 3-1.34375 3-3v-12.269531c6.769532 4.003906 13.308594 6.03125 19.492188 6.03125 6.277344 0 12.820312-1.925782 19.507812-5.726563v11.964844c0 1.65625 1.34375 3 3 3h26.777344c20.695313 0 37.53125 16.835937 37.53125 37.527344v33.730469h-73.15625c-1.65625 0-3 1.34375-3 3s1.34375 3 3 3h76.15625c1.660156 0 3-1.34375 3-3v-36.730469c0-24-19.527344-43.527344-43.527344-43.527344zm0 0" fill="#3a312a"/><path d="m142.539062 231.316406h-6.40625l.164063.121094-27.851563 36.941406-14.375-10.832031-14.371093 10.832031-27.855469-36.941406.164062-.121094h-8.039062c-22.386719 0-40.53125 18.144532-40.53125 40.53125v36.742188h179.628906v-36.742188c0-22.386718-18.144531-40.53125-40.527344-40.53125zm0 0" fill="#8ac6dd"/><path d="m142.539062 228.316406h-6.410156c-1.296875 0-2.445312.832032-2.847656 2.0625-.015625.042969-.03125.085938-.042969.128906l-25.382812 33.667969-11.976563-9.023437c-1.070312-.804688-2.542968-.804688-3.613281 0l-11.976563 9.023437-25.386718-33.667969c-.011719-.042968-.027344-.089843-.042969-.132812-.40625-1.226562-1.554687-2.058594-2.847656-2.058594h-8.042969c-24 0-43.527344 19.527344-43.527344 43.53125v36.746094c0 1.65625 1.339844 3 3 3h72.867188c1.65625 0 3-1.34375 3-3s-1.34375-3-3-3h-69.867188v-33.746094c0-20.695312 16.835938-37.53125 37.527344-37.53125h6.289062l27.046876 35.871094c.996093 1.320312 2.875 1.582031 4.199218.589844l12.570313-9.46875 12.566406 9.46875c1.324219.992187 3.203125.730468 4.199219-.589844l27.046875-35.871094h4.652343c20.695313 0 37.53125 16.835938 37.53125 37.53125v33.746094h-73.160156c-1.65625 0-3 1.34375-3 3s1.34375 3 3 3h76.15625c1.660156 0 3-1.34375 3-3v-36.746094c0-24.003906-19.527344-43.53125-43.527344-43.53125zm0 0" fill="#3a312a"/><path d="m23.65625 114.910156c-8.804688 0-15.945312 7.140625-15.945312 15.945313 0 8.808593 7.140624 15.949219 15.945312 15.949219 8.808594 0 15.949219-7.140626 15.949219-15.949219 0-8.804688-7.140625-15.945313-15.949219-15.945313zm0 0" fill="#fce8cb" fill-rule="evenodd"/><path d="m23.65625 111.910156c-10.445312 0-18.945312 8.5-18.945312 18.945313 0 10.449219 8.5 18.949219 18.945312 18.949219 10.449219 0 18.949219-8.5 18.949219-18.949219 0-10.445313-8.5-18.945313-18.949219-18.945313zm0 31.894532c-7.136719 0-12.945312-5.808594-12.945312-12.949219 0-7.136719 5.808593-12.945313 12.945312-12.945313 7.140625 0 12.949219 5.808594 12.949219 12.945313 0 7.140625-5.808594 12.949219-12.949219 12.949219zm0 0" fill="#3a312a"/><path d="m162.855469 114.910156c-8.808594 0-15.949219 7.140625-15.949219 15.945313 0 8.808593 7.140625 15.949219 15.949219 15.949219 8.804687 0 15.945312-7.140626 15.945312-15.949219 0-8.804688-7.140625-15.945313-15.945312-15.945313zm0 0" fill="#fce8cb" fill-rule="evenodd"/><path d="m162.855469 111.910156c-10.449219 0-18.949219 8.5-18.949219 18.945313 0 10.449219 8.5 18.949219 18.949219 18.949219 10.445312 0 18.945312-8.5 18.945312-18.949219 0-10.445313-8.5-18.945313-18.945312-18.945313zm0 31.894532c-7.140625 0-12.949219-5.808594-12.949219-12.949219 0-7.136719 5.808594-12.945313 12.949219-12.945313 7.136719 0 12.945312 5.808594 12.945312 12.945313 0 7.140625-5.808593 12.949219-12.945312 12.949219zm0 0" fill="#3a312a"/><path d="m93.253906 52.417969c-39.042968 0-70.695312 31.652343-70.695312 70.699219 0 39.046874 39.105468 98.976562 70.695312 98.976562 33.097656 0 70.699219-59.933594 70.699219-98.976562 0-39.042969-31.652344-70.699219-70.699219-70.699219zm0 0" fill="#fce8cb"/><path d="m93.253906 49.417969c-40.636718 0-73.695312 33.058593-73.695312 73.695312 0 19.15625 9.210937 44.382813 24.035156 65.839844 15.871094 22.964844 33.972656 36.136719 49.664062 36.136719 16.265626 0 34.574219-13.175782 50.238282-36.15625 14.46875-21.230469 23.457031-46.453125 23.457031-65.820313 0-40.632812-33.0625-73.695312-73.699219-73.695312zm45.28125 136.140625c-14.308594 20.996094-31.238281 33.535156-45.28125 33.535156-29.875 0-67.695312-59.507812-67.695312-95.976562 0-37.328126 30.367187-67.699219 67.695312-67.699219s67.699219 30.371093 67.699219 67.699219c0 18.222656-8.589844 42.148437-22.417969 62.441406zm0 0" fill="#3a312a"/><path d="m68.296875 115.417969c-3.8125 0-6.902344 3.089843-6.902344 6.898437 0 3.8125 3.089844 6.902344 6.902344 6.902344s6.898437-3.089844 6.898437-6.902344c0-3.808594-3.089843-6.898437-6.898437-6.898437zm0 0" fill="#3a312a"/><path d="m118.214844 115.417969c-3.8125 0-6.898438 3.089843-6.898438 6.898437 0 3.8125 3.089844 6.902344 6.898438 6.902344 3.8125 0 6.902344-3.089844 6.902344-6.902344 0-3.808594-3.089844-6.898437-6.902344-6.898437zm0 0" fill="#3a312a"/><path d="m54.503906 133.945312c-6.5625 0-11.886718 3.980469-11.886718 8.886719 0 4.910157 5.324218 8.886719 11.886718 8.886719 6.566406 0 11.886719-3.976562 11.886719-8.886719 0-4.90625-5.320313-8.886719-11.886719-8.886719zm0 0" fill="#f5978a"/><path d="m132.007812 133.945312c-6.5625 0-11.886718 3.980469-11.886718 8.886719 0 4.910157 5.324218 8.886719 11.886718 8.886719s11.886719-3.976562 11.886719-8.886719c0-4.90625-5.324219-8.886719-11.886719-8.886719zm0 0" fill="#f5978a"/><path d="m167.246094 106.773438c0-38.636719-32.761719-69.957032-73.175782-69.957032-40.410156 0-73.171874 31.320313-73.171874 69.957032 0 4.089843.738281 7.136718 2.113281 10.945312.648437 1.792969 11.125-3.9375 12.019531-4.566406 4.460938-3.140625 8.105469-7.398438 10.832031-12.105469 1.125-1.957031 2.0625-3.949219 2.820313-5.941406 2.410156-6.355469 8.964844-24.039063 15.621094-22.652344 8.921874 1.859375 19.035156 2.910156 29.765624 2.910156 10.730469 0 20.84375-1.046875 29.765626-2.910156 6.652343-1.386719 13.207031 16.296875 15.621093 22.652344.753907 1.992187 1.695313 3.984375 2.820313 5.941406 4.503906 7.785156 12.105468 15.199219 21.355468 16.546875.023438-.445312.585938-.597656 1.007813-.75 3.027344-1.101562 2.605469-7.640625 2.605469-10.070312zm0 0" fill="#87796f"/><path d="m170.253906 107.550781-.007812-.777343c0-40.226563-34.171875-72.957032-76.175782-72.957032-42 0-76.171874 32.730469-76.171874 72.957032 0 4.660156.917968 8.152343 2.292968 11.960937.367188 1.023437 1.191406 1.800781 2.253906 2.136719.332032.105468.710938.152344 1.128907.152344 4.421875 0 13.089843-5.355469 13.179687-5.417969 4.574219-3.21875 8.625-7.734375 11.707032-13.0625 1.183593-2.054688 2.203124-4.203125 3.027343-6.375l.152344-.402344c7.65625-20.191406 11.390625-20.515625 12.050781-20.375 9.464844 1.972656 19.6875 2.972656 30.378906 2.972656 10.691407 0 20.914063-1 30.378907-2.972656.671875-.140625 4.394531.1875 12.046875 20.375l.15625.402344c.824218 2.171875 1.839844 4.316406 3.027344 6.378906 5.769531 9.972656 14.5625 16.707031 23.519531 18.015625.839843.125 1.683593-.117188 2.335937-.648438.125-.105468.242188-.21875.347656-.339843 4.519532-1.84375 4.421876-8.449219 4.371094-12.023438zm-6.742187 6.511719c-.277344.097656-.527344.203125-.757813.320312-6.714844-1.5-13.316406-6.953124-17.875-14.832031-1.023437-1.78125-1.90625-3.632812-2.617187-5.507812l-.152344-.402344c-5.121094-13.507813-10.964844-25.746094-18.886719-24.125-9.0625 1.890625-18.871094 2.851563-29.152344 2.851563s-20.089843-.960938-29.15625-2.851563c-7.9375-1.652344-13.765624 10.621094-18.882812 24.125l-.152344.402344c-.714844 1.875-1.59375 3.726562-2.617187 5.503906-2.644531 4.570313-6.089844 8.429687-9.9375 11.132813-1.078125.710937-5.621094 3.066406-8.179688 4-.800781-2.535157-1.25-4.871094-1.25-7.90625 0-36.921876 31.480469-66.960938 70.175781-66.960938 38.691407 0 70.171876 30.039062 70.171876 66.960938l.007812.863281c.070312 4.617187-.386719 6.074219-.738281 6.425781zm0 0" fill="#3a312a"/><path d="m51.859375 231.433594 14.433594-10.878906 27.847656 36.945312-14.433594 10.878906zm0 0" fill="#87796f"/><path d="m96.527344 255.695312-27.847656-36.945312c-.996094-1.328125-2.875-1.585938-4.199219-.59375l-14.433594 10.878906c-.636719.476563-1.054687 1.191406-1.164063 1.976563-.109374.789062.09375 1.585937.574219 2.222656l27.84375 36.945313c.480469.636718 1.191407 1.054687 1.980469 1.167968.136719.019532.277344.03125.414062.03125.648438 0 1.28125-.210937 1.804688-.605468l14.433594-10.875c1.324218-1 1.589844-2.878907.59375-4.203126zm-16.238282 8.480469-24.234374-32.15625 9.640624-7.265625 24.234376 32.15625zm0 0" fill="#3a312a"/><path d="m94.015625 257.511719 27.847656-36.945313 14.433594 10.878906-27.847656 36.945313zm0 0" fill="#87796f"/><path d="m138.09375 229.035156-14.429688-10.875c-.636718-.480468-1.441406-.6875-2.222656-.574218-.789062.109374-1.5.527343-1.976562 1.164062l-27.847656 36.945312c-.480469.636719-.6875 1.4375-.574219 2.222657.109375.789062.527343 1.5 1.164062 1.980469l14.433594 10.875c.542969.40625 1.175781.605468 1.804687.605468.910157 0 1.808594-.414062 2.398438-1.199218l27.84375-36.945313c.992188-1.320313.730469-3.199219-.59375-4.199219zm-30.238281 35.140625-9.640625-7.265625 24.234375-32.15625 9.640625 7.265625zm0 0" fill="#3a312a"/><path d="m37.085938 276.5625c-1.660157 0-3 1.34375-3 3v29.027344c0 1.65625 1.339843 3 3 3 1.65625 0 3-1.34375 3-3v-29.027344c0-1.65625-1.34375-3-3-3zm0 0" fill="#3a312a"/><path d="m151.058594 276.5625c-1.660156 0-3 1.34375-3 3v29.027344c0 1.65625 1.339844 3 3 3 1.65625 0 3-1.34375 3-3v-29.027344c0-1.65625-1.34375-3-3-3zm0 0" fill="#3a312a"/><path d="m92.75 11.421875c-49.835938 29.320313-78.761719-27.039063-78.761719-1.339844 0 8.125 3.269531 16.230469 7.570313 23.601563l11.894531 16.863281c12 15.109375 26.355469 31.21875 43.691406 36.148437 27.925781 7.941407 77.355469-1.964843 77.355469-42.15625-.003906-25.707031-21.542969-56.769531-61.75-33.117187zm0 0" fill="#87796f"/><path d="m136.589844 4.464844c-8.773438-5.015625-23.765625-8.332032-45.363282 4.371094-28.503906 16.769531-49.792968 4.003906-62.507812-3.621094-6.414062-3.847656-10.652344-6.390625-14.277344-4.335938-3.0625 1.730469-3.457031 5.832032-3.457031 9.207032 0 7.683593 2.609375 15.898437 7.980469 25.109374.042968.074219.089844.148438.140625.21875l11.890625 16.859376c.035156.046874.066406.09375.105468.136718 12.953126 16.3125 27.394532 32.101563 45.222657 37.171875 5.972656 1.699219 12.988281 2.628907 20.363281 2.628907 15.03125 0 31.539062-3.875 43.65625-13.027344 11.222656-8.472656 17.15625-20.457032 17.15625-34.644532-.003906-13.996093-6.464844-31.8125-20.910156-40.074218zm.136718 69.933594c-16.496093 12.457031-42.046874 14.164062-58.761718 9.410156-16.171875-4.597656-29.796875-19.5625-42.113282-35.0625l-11.769531-16.6875c-4.773437-8.21875-7.09375-15.410156-7.09375-21.976563 0-2.484375.300781-3.53125.464844-3.917969 1.417969.136719 5.148437 2.375 8.179687 4.191407 12.949219 7.769531 37.058594 22.226562 68.640626 3.652343 15.128906-8.902343 28.730468-10.402343 39.339843-4.335937 12.355469 7.066406 17.882813 22.601563 17.882813 34.867187 0 12.40625-4.96875 22.453126-14.769532 29.859376zm0 0" fill="#3a312a"/><path d="m113.839844 165.492188c-1.554688-.585938-3.28125.203124-3.863282 1.757812-1.320312 3.53125-6.519531 10.210938-16.726562 10.210938-8.085938 0-13.429688-3.320313-16.824219-10.449219-.714843-1.496094-2.503906-2.125-4-1.421875-1.496093.714844-2.128906 2.503906-1.417969 4 4.378907 9.203125 11.867188 13.871094 22.242188 13.871094 11.722656 0 19.800781-7.3125 22.34375-14.109376.582031-1.546874-.203125-3.277343-1.753906-3.859374zm0 0" fill="#3a312a"/><path d="m407.871094 231.328125h-26.78125v-17.402344c-7.402344 5.132813-15.066406 8.164063-22.503906 8.164063-7.132813 0-14.664063-3.0625-22.039063-8.253906h-.453125v17.492187h-26.792969c-22.386719 0-40.53125 18.144531-40.53125 40.53125v36.726563h179.628907v-36.726563c0-22.386719-18.144532-40.53125-40.527344-40.53125zm0 0" fill="#fce8cb"/><path d="m407.871094 228.328125h-23.78125v-14.402344c0-1.117187-.617188-2.140625-1.605469-2.660156-.988281-.515625-2.183594-.445313-3.101563.195313-7.300781 5.0625-14.300781 7.628906-20.796874 7.628906-6.214844 0-13.050782-2.59375-20.308594-7.707032-.503906-.359374-1.109375-.546874-1.730469-.546874h-.453125c-1.65625 0-3 1.34375-3 3v14.492187h-23.792969c-24 0-43.527343 19.527344-43.527343 43.53125v36.730469c0 1.65625 1.339843 3 3 3h179.625c1.660156 0 3-1.34375 3-3v-36.730469c0-24.003906-19.523438-43.53125-43.527344-43.53125zm37.527344 77.257813h-173.625v-33.726563c0-20.695313 16.835937-37.53125 37.527343-37.53125h26.792969c1.65625 0 3-1.34375 3-3v-12.269531c6.765625 4.003906 13.304688 6.03125 19.492188 6.03125 6.277343 0 12.820312-1.925782 19.503906-5.726563v11.964844c0 1.65625 1.34375 3 3 3h26.78125c20.691406 0 37.527344 16.835937 37.527344 37.53125zm0 0" fill="#3a312a"/><path d="m407.871094 231.316406h-6.40625l.167968.121094-27.855468 36.941406-14.375-10.828125-14.371094 10.828125-27.855469-36.941406.167969-.121094h-8.042969c-22.386719 0-40.527343 18.144532-40.527343 40.53125v36.742188h179.625v-36.742188c.003906-22.386718-18.144532-40.53125-40.527344-40.53125zm0 0" fill="#d7e057"/><path d="m407.871094 228.316406h-6.40625c-1.300782 0-2.449219.835938-2.851563 2.070313-.011719.039062-.023437.078125-.035156.117187l-25.386719 33.671875-11.980468-9.023437c-1.070313-.804688-2.542969-.804688-3.609376 0l-11.980468 9.023437-25.386719-33.671875c-.011719-.039062-.023437-.078125-.035156-.117187-.402344-1.234375-1.554688-2.070313-2.855469-2.070313h-8.039062c-24.003907 0-43.53125 19.527344-43.53125 43.53125v36.742188c0 1.65625 1.34375 3 3 3h179.628906c1.65625 0 3-1.34375 3-3v-36.742188c0-24.003906-19.527344-43.53125-43.53125-43.53125zm37.53125 77.273438h-173.628906v-33.742188c0-20.695312 16.835937-37.53125 37.53125-37.53125h6.285156l27.046875 35.867188c.996093 1.324218 2.875 1.585937 4.199219.589844l12.570312-9.46875 12.566406 9.46875c1.324219.996093 3.203125.734374 4.203125-.589844l27.042969-35.867188h4.65625c20.691406 0 37.527344 16.835938 37.527344 37.53125zm0 0" fill="#3a312a"/><path d="m288.992188 114.910156c-8.808594 0-15.949219 7.140625-15.949219 15.945313 0 8.808593 7.140625 15.949219 15.949219 15.949219 8.808593 0 15.949218-7.140626 15.949218-15.949219 0-8.804688-7.140625-15.945313-15.949218-15.945313zm0 0" fill="#fce8cb" fill-rule="evenodd"/><path d="m288.992188 111.910156c-10.449219 0-18.949219 8.5-18.949219 18.945313 0 10.449219 8.5 18.949219 18.949219 18.949219 10.449218 0 18.949218-8.5 18.949218-18.949219 0-10.445313-8.5-18.945313-18.949218-18.945313zm0 31.894532c-7.136719 0-12.949219-5.808594-12.949219-12.949219 0-7.136719 5.808593-12.945313 12.949219-12.945313 7.140624 0 12.949218 5.808594 12.949218 12.945313 0 7.140625-5.8125 12.949219-12.949218 12.949219zm0 0" fill="#3a312a"/><path d="m428.1875 114.910156c-8.808594 0-15.949219 7.140625-15.949219 15.945313 0 8.808593 7.140625 15.949219 15.949219 15.949219 8.804688 0 15.945312-7.140626 15.945312-15.949219 0-8.804688-7.140624-15.945313-15.945312-15.945313zm0 0" fill="#fce8cb" fill-rule="evenodd"/><path d="m428.1875 111.910156c-10.449219 0-18.949219 8.5-18.949219 18.945313 0 10.449219 8.5 18.949219 18.949219 18.949219 10.445312 0 18.945312-8.5 18.945312-18.949219 0-10.445313-8.5-18.945313-18.945312-18.945313zm0 31.894532c-7.140625 0-12.949219-5.808594-12.949219-12.949219 0-7.136719 5.808594-12.945313 12.949219-12.945313 7.136719 0 12.945312 5.808594 12.945312 12.945313 0 7.140625-5.808593 12.949219-12.945312 12.949219zm0 0" fill="#3a312a"/><path d="m358.585938 52.417969c-39.042969 0-70.695313 31.652343-70.695313 70.699219 0 39.046874 39.105469 98.976562 70.695313 98.976562 33.09375 0 70.699218-59.933594 70.699218-98.976562 0-39.042969-31.652344-70.699219-70.699218-70.699219zm0 0" fill="#fce8cb"/><path d="m358.585938 49.417969c-40.632813 0-73.695313 33.058593-73.695313 73.695312 0 19.15625 9.210937 44.382813 24.035156 65.839844 15.871094 22.964844 33.972657 36.136719 49.660157 36.136719 16.269531 0 34.578124-13.175782 50.238281-36.15625 14.472656-21.230469 23.460937-46.453125 23.460937-65.820313 0-40.632812-33.058594-73.695312-73.699218-73.695312zm45.28125 136.140625c-14.308594 20.996094-31.238282 33.535156-45.28125 33.535156-29.875 0-67.695313-59.507812-67.695313-95.976562 0-37.328126 30.367187-67.699219 67.695313-67.699219 37.328124 0 67.699218 30.371093 67.699218 67.699219 0 18.222656-8.589844 42.148437-22.417968 62.441406zm0 0" fill="#3a312a"/><path d="m333.628906 115.417969c-3.8125 0-6.902344 3.089843-6.902344 6.898437 0 3.8125 3.089844 6.902344 6.902344 6.902344 3.808594 0 6.898438-3.089844 6.898438-6.902344 0-3.808594-3.085938-6.898437-6.898438-6.898437zm0 0" fill="#3a312a"/><path d="m390.449219 122.316406c0 3.8125-3.089844 6.902344-6.898438 6.902344-3.8125 0-6.902343-3.089844-6.902343-6.902344 0-3.808594 3.089843-6.898437 6.902343-6.898437 3.808594 0 6.898438 3.089843 6.898438 6.898437zm0 0" fill="#3a312a"/><path d="m319.835938 133.945312c-6.5625 0-11.882813 3.980469-11.882813 8.886719 0 4.910157 5.320313 8.886719 11.882813 8.886719 6.566406 0 11.890624-3.976562 11.890624-8.886719-.003906-4.90625-5.324218-8.886719-11.890624-8.886719zm0 0" fill="#f5978a"/><path d="m397.339844 133.945312c-6.5625 0-11.886719 3.980469-11.886719 8.886719 0 4.910157 5.324219 8.886719 11.886719 8.886719 6.566406 0 11.886718-3.976562 11.886718-8.886719 0-4.90625-5.320312-8.886719-11.886718-8.886719zm0 0" fill="#f5978a"/><path d="m432.578125 106.773438c0-38.636719-32.761719-69.957032-73.171875-69.957032-40.414062 0-73.175781 31.320313-73.175781 69.957032 0 4.089843.742187 7.136718 2.113281 10.945312.648438 1.792969 11.128906-3.9375 12.019531-4.566406 4.460938-3.140625 8.109375-7.398438 10.832031-12.105469 1.125-1.957031 2.066407-3.949219 2.824219-5.941406 2.410157-6.355469 8.964844-24.039063 15.617188-22.652344 8.925781 1.859375 19.039062 2.910156 29.765625 2.910156 10.730468 0 20.84375-1.046875 29.765625-2.910156 6.65625-1.386719 13.210937 16.296875 15.621093 22.652344.757813 1.992187 1.695313 3.984375 2.824219 5.941406 4.5 7.785156 12.101563 15.199219 21.351563 16.546875.023437-.445312.589844-.597656 1.007812-.75 3.03125-1.101562 2.605469-7.640625 2.605469-10.070312zm0 0" fill="#87796f"/><path d="m435.585938 107.550781-.007813-.777343c0-40.226563-34.171875-72.957032-76.175781-72.957032-42 0-76.171875 32.730469-76.171875 72.957032 0 4.660156.914062 8.152343 2.292969 11.964843.367187 1.019531 1.191406 1.796875 2.257812 2.132813.332031.105468.707031.152344 1.125.152344 4.425781 0 13.09375-5.355469 13.183594-5.417969 4.574218-3.21875 8.621094-7.734375 11.703125-13.0625 1.1875-2.058594 2.203125-4.203125 3.027343-6.375l.152344-.394531c7.652344-20.199219 11.367188-20.527344 12.050782-20.382813 9.464843 1.972656 19.6875 2.972656 30.378906 2.972656 10.695312 0 20.917968-1 30.378906-2.972656.664062-.140625 4.398438.1875 12.054688 20.382813l.148437.394531c.824219 2.171875 1.84375 4.316406 3.03125 6.378906 5.765625 9.972656 14.558594 16.707031 23.519531 18.015625.835938.125 1.679688-.117188 2.332032-.648438.125-.105468.242187-.21875.347656-.335937 4.523437-1.847656 4.425781-8.453125 4.371094-12.027344zm-6.738282 6.511719c-.277344.097656-.53125.203125-.757812.320312-6.714844-1.5-13.316406-6.953124-17.875-14.832031-1.027344-1.785156-1.910156-3.636719-2.621094-5.507812l-.144531-.390625c-5.121094-13.511719-10.945313-25.78125-18.890625-24.136719-9.0625 1.890625-18.867188 2.851563-29.152344 2.851563-10.28125 0-20.089844-.957032-29.15625-2.851563-7.957031-1.644531-13.765625 10.625-18.882812 24.132813l-.152344.394531c-.710938 1.871093-1.589844 3.722656-2.613282 5.503906-2.648437 4.570313-6.09375 8.429687-9.941406 11.132813-1.078125.710937-5.621094 3.066406-8.179687 4-.800781-2.535157-1.25-4.871094-1.25-7.90625 0-36.921876 31.480469-66.960938 70.175781-66.960938s70.171875 30.039062 70.171875 66.960938l.007813.863281c.070312 4.617187-.390626 6.074219-.738282 6.425781zm0 0" fill="#3a312a"/><path d="m317.195312 231.425781 14.433594-10.878906 27.847656 36.949219-14.433593 10.878906zm0 0" fill="#87796f"/><path d="m361.859375 255.695312-27.84375-36.945312c-.996094-1.328125-2.878906-1.585938-4.203125-.59375l-14.433594 10.878906c-.636718.476563-1.054687 1.191406-1.164062 1.976563-.109375.789062.097656 1.585937.578125 2.222656l27.84375 36.945313c.589843.785156 1.488281 1.199218 2.398437 1.199218.625 0 1.261719-.199218 1.800782-.605468l14.4375-10.875c.632812-.480469 1.050781-1.191407 1.164062-1.980469.105469-.785157-.101562-1.585938-.578125-2.222657zm-16.238281 8.480469-24.234375-32.15625 9.640625-7.265625 24.234375 32.15625zm0 0" fill="#3a312a"/><path d="m359.359375 257.511719 27.847656-36.945313 14.433594 10.878906-27.847656 36.945313zm0 0" fill="#87796f"/><g fill="#3a312a"><path d="m404.59375 231.011719c-.109375-.785157-.53125-1.5-1.167969-1.976563l-14.433593-10.875c-1.324219-.996094-3.203126-.734375-4.199219.589844l-27.84375 36.949219c-.480469.632812-.6875 1.433593-.578125 2.222656s.53125 1.5 1.167968 1.976563l14.433594 10.875c.539063.40625 1.171875.605468 1.804688.605468.910156 0 1.804687-.410156 2.394531-1.195312l27.847656-36.949219c.480469-.632813.6875-1.429687.574219-2.222656zm-31.402344 33.164062-9.644531-7.265625 24.234375-32.15625 9.640625 7.265625zm0 0"/><path d="m302.417969 276.5625c-1.65625 0-3 1.34375-3 3v29.027344c0 1.65625 1.34375 3 3 3 1.660156 0 3-1.34375 3-3v-29.027344c0-1.65625-1.34375-3-3-3zm0 0"/><path d="m416.390625 276.5625c-1.660156 0-3 1.34375-3 3v29.027344c0 1.65625 1.339844 3 3 3 1.65625 0 3-1.34375 3-3v-29.027344c0-1.65625-1.34375-3-3-3zm0 0"/><path d="m379.171875 165.492188c-1.546875-.585938-3.277344.203124-3.859375 1.757812-1.324219 3.53125-6.519531 10.210938-16.726562 10.210938-8.085938 0-13.433594-3.320313-16.824219-10.449219-.710938-1.496094-2.5-2.125-4-1.421875-1.492188.714844-2.128907 2.503906-1.417969 4 4.378906 9.203125 11.867188 13.871094 22.242188 13.871094 11.722656 0 19.800781-7.3125 22.34375-14.109376.582031-1.546874-.207032-3.277343-1.757813-3.859374zm0 0"/></g><path d="m360.65625 12.507812c-42.15625 0-57.335938 16.0625-57.335938 35.878907 0 19.8125 15.179688 35.875 57.335938 35.875s76.328125-35.875 76.328125-35.875-34.171875-35.878907-76.328125-35.878907zm0 0" fill="#87796f" fill-rule="evenodd"/><path d="m439.15625 46.316406c-1.429688-1.503906-35.550781-36.8125-78.5-36.8125-52.5 0-60.335938 24.359375-60.335938 38.882813 0 14.519531 7.835938 38.875 60.335938 38.875 42.949219 0 77.070312-35.304688 78.5-36.808594 1.105469-1.15625 1.105469-2.976563 0-4.136719zm-78.5 34.949219c-35.546875 0-54.335938-11.371094-54.335938-32.878906 0-21.511719 18.789063-32.878907 54.335938-32.878907 34.542969 0 64.058594 25.375 72.039062 32.882813-7.972656 7.511719-37.445312 32.875-72.039062 32.875zm0 0" fill="#3a312a"/><path d="m149.488281 250.445312h151.734375v173.667969h-151.734375zm0 0" fill="#87796f"/><path d="m301.222656 247.445312h-151.734375c-1.660156 0-3 1.34375-3 3v173.671876c0 1.65625 1.339844 3 3 3h151.734375c1.65625 0 3-1.34375 3-3v-173.671876c0-1.65625-1.34375-3-3-3zm-3 173.671876h-145.734375v-167.671876h145.734375zm0 0" fill="#3a312a"/><path d="m275.644531 389.960938h-26.777343v-17.402344c-7.40625 5.132812-15.070313 8.164062-22.507813 8.164062-7.132813 0-14.660156-3.058594-22.039063-8.253906h-.453124v17.496094h-26.792969c-22.386719 0-40.53125 18.140625-40.53125 40.527344v18.382812h179.628906v-18.382812c0-22.386719-18.144531-40.53125-40.527344-40.53125zm0 0" fill="#fce8cb"/><path d="m275.644531 386.964844h-23.777343v-14.40625c0-1.117188-.621094-2.140625-1.609376-2.65625-.988281-.519532-2.1875-.445313-3.101562.191406-7.300781 5.0625-14.296875 7.628906-20.792969 7.628906-6.21875 0-13.050781-2.59375-20.3125-7.707031-.503906-.355469-1.109375-.546875-1.726562-.546875h-.453125c-1.660156 0-3 1.34375-3 3v14.496094h-23.792969c-24.003906 0-43.53125 19.527344-43.53125 43.527344v18.382812c0 1.65625 1.34375 3 3 3h179.628906c1.65625 0 3-1.34375 3-3v-18.382812c-.003906-24.003907-19.53125-43.527344-43.53125-43.527344zm37.527344 58.910156h-173.628906v-15.382812c0-20.691407 16.835937-37.527344 37.53125-37.527344h26.792969c1.65625 0 3-1.34375 3-3v-12.273438c6.765624 4.003906 13.304687 6.03125 19.492187 6.03125 6.273437 0 12.816406-1.921875 19.503906-5.726562v11.96875c0 1.65625 1.34375 3 3 3h26.777344c20.695313 0 37.53125 16.835937 37.53125 37.527344zm0 0" fill="#3a312a"/><path d="m275.644531 389.949219h-6.40625l.164063.121093-27.851563 36.941407-14.375-10.828125-14.375 10.828125-27.851562-36.941407.164062-.121093h-8.042969c-22.382812 0-40.527343 18.144531-40.527343 40.53125v18.394531h179.625v-18.394531c.003906-22.386719-18.136719-40.53125-40.523438-40.53125zm0 0" fill="#f16c7a"/><path d="m275.644531 386.949219h-6.40625c-1.292969 0-2.445312.828125-2.847656 2.058593-.015625.042969-.027344.089844-.039063.132813l-25.390624 33.667969-11.976563-9.023438c-1.070313-.804687-2.542969-.804687-3.609375 0l-11.980469 9.023438-25.386719-33.667969c-.011718-.042969-.027343-.089844-.042968-.132813-.40625-1.230468-1.554688-2.058593-2.847656-2.058593h-8.042969c-24 0-43.527344 19.527343-43.527344 43.53125v18.394531c0 1.65625 1.339844 3 3 3h179.628906c1.65625 0 3-1.34375 3-3v-18.394531c-.003906-24.003907-19.53125-43.53125-43.53125-43.53125zm37.527344 58.925781h-173.628906v-15.394531c0-20.695313 16.835937-37.53125 37.53125-37.53125h6.289062l27.042969 35.871093c.996094 1.320313 2.878906 1.582032 4.199219.589844l12.570312-9.46875 12.566407 9.46875c1.324218.992188 3.207031.730469 4.203124-.589844l27.042969-35.871093h4.652344c20.691406 0 37.527344 16.835937 37.527344 37.53125v15.394531zm0 0" fill="#3a312a"/><path d="m156.761719 273.542969c-8.804688 0-15.945313 7.140625-15.945313 15.949219 0 8.808593 7.140625 15.945312 15.945313 15.945312 8.808593 0 15.949219-7.136719 15.949219-15.945312 0-8.808594-7.140626-15.949219-15.949219-15.949219zm0 0" fill="#fce8cb" fill-rule="evenodd"/><path d="m156.761719 270.542969c-10.445313 0-18.945313 8.5-18.945313 18.949219 0 10.445312 8.5 18.945312 18.945313 18.945312 10.449219 0 18.949219-8.5 18.949219-18.945312 0-10.449219-8.5-18.949219-18.949219-18.949219zm0 31.894531c-7.136719 0-12.945313-5.808594-12.945313-12.949219s5.808594-12.945312 12.945313-12.945312c7.140625 0 12.949219 5.804687 12.949219 12.945312s-5.808594 12.949219-12.949219 12.949219zm0 0" fill="#3a312a"/><path d="m295.957031 273.542969c-8.808593 0-15.949219 7.140625-15.949219 15.949219 0 8.808593 7.140626 15.945312 15.949219 15.945312 8.808594 0 15.949219-7.136719 15.949219-15.945312 0-8.808594-7.140625-15.949219-15.949219-15.949219zm0 0" fill="#fce8cb" fill-rule="evenodd"/><path d="m295.957031 270.542969c-10.449219 0-18.949219 8.5-18.949219 18.949219 0 10.445312 8.5 18.945312 18.949219 18.945312s18.949219-8.5 18.949219-18.945312c0-10.449219-8.5-18.949219-18.949219-18.949219zm0 31.894531c-7.136719 0-12.949219-5.808594-12.949219-12.949219s5.808594-12.945312 12.949219-12.945312 12.949219 5.804687 12.949219 12.945312-5.808594 12.949219-12.949219 12.949219zm0 0" fill="#3a312a"/><path d="m226.363281 211.050781c-39.046875 0-70.699219 31.652344-70.699219 70.699219 0 39.042969 39.109376 98.976562 70.699219 98.976562 33.09375 0 70.695313-59.929687 70.695313-98.976562s-31.652344-70.699219-70.695313-70.699219zm0 0" fill="#fce8cb"/><path d="m226.363281 208.054688c-40.636719 0-73.699219 33.058593-73.699219 73.695312 0 19.15625 9.210938 44.382812 24.035157 65.835938 15.871093 22.96875 33.972656 36.140624 49.664062 36.140624 16.265625 0 34.578125-13.175781 50.238281-36.15625 14.46875-21.230468 23.457032-46.453124 23.457032-65.820312 0-40.636719-33.0625-73.695312-73.695313-73.695312zm45.277344 136.136718c-14.3125 20.996094-31.238281 33.535156-45.28125 33.535156-29.878906 0-67.699219-59.507812-67.699219-95.976562 0-37.328125 30.371094-67.695312 67.699219-67.695312s67.699219 30.367187 67.699219 67.695312c0 18.226562-8.589844 42.152344-22.417969 62.441406zm0 0" fill="#3a312a"/><path d="m201.402344 274.050781c-3.8125 0-6.902344 3.089844-6.902344 6.902344 0 3.808594 3.089844 6.898437 6.902344 6.898437 3.808594 0 6.898437-3.089843 6.898437-6.898437 0-3.8125-3.089843-6.902344-6.898437-6.902344zm0 0" fill="#3a312a"/><path d="m258.222656 280.953125c0 3.808594-3.089844 6.898437-6.902344 6.898437-3.808593 0-6.898437-3.089843-6.898437-6.898437 0-3.8125 3.089844-6.902344 6.898437-6.902344 3.8125 0 6.902344 3.089844 6.902344 6.902344zm0 0" fill="#3a312a"/><path d="m187.609375 292.578125c-6.5625 0-11.886719 3.980469-11.886719 8.886719 0 4.910156 5.324219 8.886718 11.886719 8.886718 6.566406 0 11.886719-3.976562 11.886719-8.886718 0-4.90625-5.320313-8.886719-11.886719-8.886719zm0 0" fill="#f5978a"/><path d="m265.113281 292.578125c-6.566406 0-11.886719 3.980469-11.886719 8.886719 0 4.910156 5.320313 8.886718 11.886719 8.886718 6.5625 0 11.882813-3.976562 11.882813-8.886718.003906-4.90625-5.320313-8.886719-11.882813-8.886719zm0 0" fill="#f5978a"/><path d="m184.9375 390.066406 14.433594-10.875 27.839844 36.945313-14.433594 10.878906zm0 0" fill="#87796f"/><path d="m229.632812 414.328125-27.84375-36.945313c-.480468-.636718-1.191406-1.054687-1.980468-1.167968-.785156-.113282-1.585938.097656-2.222656.574218l-14.429688 10.875c-1.324219 1-1.589844 2.878907-.589844 4.203126l27.84375 36.949218c.585938.78125 1.488282 1.195313 2.398438 1.195313.628906 0 1.261718-.199219 1.804687-.605469l14.433594-10.875c.632813-.476562 1.054687-1.191406 1.164063-1.976562.105468-.792969-.097657-1.589844-.578126-2.226563zm-16.238281 8.484375-24.234375-32.15625 9.640625-7.265625 24.234375 32.15625zm0 0" fill="#3a312a"/><path d="m227.128906 416.152344 27.84375-36.945313 14.433594 10.875-27.847656 36.949219zm0 0" fill="#87796f"/><path d="m272.367188 389.644531c-.109376-.789062-.53125-1.5-1.164063-1.976562l-14.433594-10.875c-1.324219-.992188-3.207031-.734375-4.203125.589843l-27.84375 36.949219c-.996094 1.320313-.734375 3.203125.589844 4.203125l14.433594 10.875c.523437.394532 1.15625.601563 1.804687.601563.140625 0 .277344-.007813.417969-.027344.785156-.113281 1.5-.53125 1.976562-1.167969l27.84375-36.945312c.484376-.636719.6875-1.4375.578126-2.226563zm-31.40625 33.167969-9.640626-7.265625 24.234376-32.15625 9.640624 7.265625zm0 0" fill="#3a312a"/><path d="m246.949219 324.128906c-1.546875-.585937-3.285157.203125-3.863281 1.753906-1.324219 3.535157-6.523438 10.210938-16.726563 10.210938-8.085937 0-13.433594-3.320312-16.824219-10.449219-.714844-1.496093-2.503906-2.125-4-1.417969-1.496094.710938-2.132812 2.5-1.417968 3.996094 4.378906 9.207032 11.863281 13.871094 22.242187 13.871094 11.71875 0 19.796875-7.308594 22.34375-14.105469.582031-1.554687-.203125-3.28125-1.753906-3.859375zm0 0" fill="#3a312a"/><path d="m284.53125 210.089844c-14.855469-13.636719-35.878906-22.148438-59.179688-22.148438-8.71875 0-17.109374 1.191406-24.96875 3.40625 6.226563 12.550782 13.585938 24.605469 23.613282 35.09375 4.609375 4.8125 9.714844 9.25 15.121094 13.371094 4.402343 3.402344 9.007812 6.613281 13.691406 9.699219 15.957031 10.53125 33.183594 19.84375 51.289062 27.429687 1.78125-5.804687 2.722656-11.910156 2.722656-18.207031 0-18.84375-8.464843-35.964844-22.289062-48.644531zm0 0" fill="#87796f"/><path d="m286.558594 207.882812c-16.109375-14.792968-37.847656-22.941406-61.210938-22.941406-8.824218 0-17.5 1.1875-25.78125 3.519532-.859375.242187-1.566406.855468-1.929687 1.671874-.359375.8125-.339844 1.75.054687 2.546876 7.449219 15.015624 15.117188 26.398437 24.132813 35.835937 4.445312 4.636719 9.648437 9.242187 15.453125 13.667969 4.054687 3.136718 8.59375 6.351562 13.875 9.828125 16.523437 10.902343 33.949218 20.222656 51.785156 27.699219.367188.152343.765625.230468 1.15625.230468.4375 0 .871094-.09375 1.277344-.285156.765625-.359375 1.34375-1.027344 1.59375-1.835938 1.894531-6.175781 2.851562-12.597656 2.851562-19.085937.003906-19.035156-8.257812-37.09375-23.257812-50.851563zm15.558594 64.953126c-16.398438-7.09375-32.414063-15.773438-47.660157-25.832032-5.15625-3.398437-9.574219-6.527344-13.523437-9.578125-5.574219-4.25-10.542969-8.644531-14.769532-13.054687-7.917968-8.289063-14.777343-18.21875-21.421874-31.054688 6.671874-1.574218 13.585937-2.375 20.609374-2.375 21.855469 0 42.152344 7.585938 57.152344 21.359375 13.746094 12.609375 21.316406 29.101563 21.316406 46.433594 0 4.769531-.574218 9.5-1.703124 14.101563zm0 0" fill="#3a312a"/><path d="m225.351562 187.941406c-8.71875 0-17.109374 1.191406-24.96875 3.40625-32.769531 9.148438-56.488281 35.863282-56.488281 67.386719 0 6.667969 1.058594 13.117187 3.046875 19.230469 32.136719-10.246094 63.539063-22.554688 92.171875-38.152344 16.148438-8.789062 31.402344-18.617188 45.417969-29.722656-14.855469-13.636719-35.878906-22.148438-59.179688-22.148438zm0 0" fill="#87796f"/><path d="m286.558594 207.882812c-16.109375-14.792968-37.847656-22.941406-61.210938-22.941406-8.824218 0-17.5 1.1875-25.773437 3.519532-35.101563 9.792968-58.683594 38.035156-58.683594 70.273437 0 6.851563 1.078125 13.636719 3.195313 20.160156.410156 1.265625 1.585937 2.070313 2.851562 2.070313.300781 0 .609375-.042969.914062-.140625 36.097657-11.511719 66.417969-24.0625 92.695313-38.378907 16.90625-9.203124 32.332031-19.296874 45.84375-30.003906.6875-.542968 1.101563-1.367187 1.136719-2.242187.03125-.875-.320313-1.722657-.96875-2.316407zm-48.878906 29.292969c-25.230469 13.742188-54.285157 25.859375-88.738282 36.996094-1.359375-5.035156-2.046875-10.210937-2.046875-15.4375 0-29.515625 21.820313-55.433594 54.300781-64.5 7.753907-2.183594 15.878907-3.292969 24.15625-3.292969 20.582032 0 39.78125 6.726563 54.476563 19.015625-12.554687 9.675781-26.714844 18.820313-42.148437 27.21875zm0 0" fill="#3a312a"/><path d="m65.300781 373.417969c-1.945312 23.128906-26.050781 26.78125-26.050781 26.78125 20.695312.972656 25.851562 28.117187 25.851562 28.117187.441407-19.351562 26.640626-28.402344 26.640626-28.402344-19.625-1.175781-26.441407-26.496093-26.441407-26.496093zm0 0" fill="#d7e057"/><path d="m91.921875 396.917969c-17.207031-1.03125-23.664063-24.046875-23.722656-24.28125-.382813-1.40625-1.722657-2.34375-3.167969-2.207031-1.449219.132812-2.59375 1.285156-2.71875 2.734374-1.71875 20.429688-22.625 23.929688-23.507812 24.066407-1.527344.230469-2.628907 1.582031-2.546876 3.121093.078126 1.542969 1.3125 2.769532 2.855469 2.839844 18.054688.855469 22.996094 25.4375 23.042969 25.6875.273438 1.421875 1.519531 2.433594 2.945312 2.433594.085938 0 .167969-.003906.253907-.007812 1.527343-.128907 2.710937-1.386719 2.75-2.921876.386719-17.019531 24.382812-25.554687 24.625-25.636718 1.347656-.46875 2.183593-1.828125 1.988281-3.246094-.199219-1.417969-1.367188-2.5-2.796875-2.582031zm-27.128906 20.691406c-2.714844-6.261719-7.417969-13.8125-15.175781-17.753906 5.863281-2.808594 12.820312-7.828125 16.40625-16.542969 3.101562 6.140625 8.394531 13.757812 16.667968 17.445312-6.015625 3.277344-13.847656 8.808594-17.898437 16.851563zm0 0" fill="#3a312a"/><path d="m21.902344 407.382812c-1.375 16.355469-18.421875 18.941407-18.421875 18.941407 14.636719.6875 18.28125 19.886719 18.28125 19.886719.3125-13.691407 18.847656-20.089844 18.847656-20.089844-13.882813-.832032-18.707031-18.738282-18.707031-18.738282zm0 0" fill="#d7e057"/><path d="m40.785156 423.125c-11.53125-.691406-15.945312-16.371094-15.988281-16.53125-.378906-1.402344-1.710937-2.347656-3.164063-2.203125-1.453124.128906-2.597656 1.285156-2.71875 2.738281-1.160156 13.738282-15.292968 16.128906-15.882812 16.222656-1.527344.234376-2.628906 1.582032-2.546875 3.125.078125 1.539063 1.3125 2.769532 2.851563 2.839844 12.074218.570313 15.449218 17.289063 15.480468 17.453125.269532 1.425781 1.515625 2.441407 2.945313 2.441407.082031 0 .164062-.003907.25-.007813 1.53125-.128906 2.714843-1.386719 2.75-2.925781.265625-11.417969 16.664062-17.265625 16.828125-17.320313 1.355468-.46875 2.1875-1.828125 1.992187-3.246093-.199219-1.417969-1.367187-2.5-2.796875-2.585938zm-19.167968 13.589844c-1.847657-3.773438-4.679688-7.894532-8.894532-10.558594 3.714844-2.082031 7.394532-5.257812 9.742188-9.832031 2.113281 3.746093 5.3125 7.910156 9.882812 10.445312-3.699218 2.203125-7.976562 5.480469-10.730468 9.945313zm0 0" fill="#3a312a"/><path d="m21.902344 354.066406c-1.375 16.355469-18.421875 18.9375-18.421875 18.9375 14.636719.6875 18.28125 19.890625 18.28125 19.890625.3125-13.691406 18.847656-20.089843 18.847656-20.089843-13.882813-.832032-18.707031-18.738282-18.707031-18.738282zm0 0" fill="#d7e057"/><path d="m40.785156 369.8125c-11.53125-.691406-15.945312-16.375-15.988281-16.53125-.378906-1.402344-1.710937-2.335938-3.164063-2.203125-1.453124.128906-2.597656 1.285156-2.71875 2.734375-1.160156 13.742188-15.292968 16.128906-15.882812 16.226562-1.527344.230469-2.628906 1.582032-2.546875 3.121094.078125 1.542969 1.3125 2.769532 2.851563 2.839844 12.074218.570312 15.449218 17.292969 15.480468 17.457031.269532 1.421875 1.515625 2.4375 2.941406 2.4375.085938 0 .167969-.003906.25-.007812 1.53125-.128907 2.71875-1.386719 2.753907-2.921875.261719-11.417969 16.660156-17.269532 16.824219-17.324219 1.355468-.464844 2.191406-1.824219 1.992187-3.242187-.195313-1.417969-1.363281-2.503907-2.792969-2.585938zm-19.167968 13.585938c-1.847657-3.769532-4.679688-7.894532-8.894532-10.558594 3.710938-2.082032 7.394532-5.257813 9.742188-9.832032 2.113281 3.746094 5.308594 7.90625 9.878906 10.449219-3.695312 2.199219-7.972656 5.476563-10.726562 9.941407zm0 0" fill="#3a312a"/><path d="m137.820312 289.484375c0-5.222656 2.140626-9.980469 5.578126-13.402344-1.640626-6.597656-2.5-13.378906-2.5-20.238281 0-7.378906.960937-14.582031 2.742187-21.480469-.359375 0-.722656-.039062-1.101563-.039062h-4.660156l-26.078125 34.597656-.960937 1.261719c-.019532.019531-.039063.058594-.082032.078125.320313 1.960937.742188 3.902343 1.222657 5.820312-3.441407 3.421875-5.582031 8.179688-5.582031 13.402344 0 6.660156 3.460937 12.519531 8.660156 15.898437v.199219h31.421875v-.199219c-5.199219-3.378906-8.660157-9.238281-8.660157-15.898437zm0 0" fill="#6ca8bf"/><path d="m407.878906 234.324219h-4.660156l-5.179688 6.859375c9.640626 6.78125 15.941407 18 15.941407 30.660156v5.960938c.539062-.761719 1.417969-1.242188 2.417969-1.242188 1.640624 0 3 1.339844 3 3v26.019531h26v-33.738281c0-20.699219-16.839844-37.519531-37.519532-37.519531zm0 0" fill="#b9c239"/><path d="m275.640625 392.941406h-4.640625l-5.179688 6.863282c9.640626 6.796874 15.9375 18.019531 15.9375 30.679687v15.398437h31.421876v-15.398437c0-20.699219-16.839844-37.542969-37.539063-37.542969zm0 0" fill="#d34e5c"/></svg>